<svg xmlns="http://www.w3.org/2000/svg" width="500" height="500" fill="none"><circle cx="250" cy="250" r="250" fill="url(#a)"/><path fill="#fff" d="M146.47 205h-53.5v35.75h45.5v35.75h-45.5V348H57.22V169.25h89.25V205Zm65.152 143h-35.75V169.5h70.25c69.5 0 69.25 110.25 0 110.25h-34.5V348Zm0-103h31.5c24 0 24-40 0-40h-31.5v40Zm150.885-40.25v36h31.75c10.25 0 16.5-8.25 16.5-18 0-10-6.25-18-16.5-18h-31.75Zm-36 143.25V169h70.75c31.75 0 51.5 22.75 50.75 54.25-.5 13.5-5.25 27.5-16.5 35.25 11.75 8 18.5 21.75 18.5 35.75 0 30-23.75 53.75-52.75 53.75h-70.75Zm36-71.5v35.75h31.75c10.25 0 18-8 18-18s-7.75-17.75-18-17.75h-31.75Z"/><defs><linearGradient id="a" x1="80" x2="420" y1="61" y2="448.5" gradientUnits="userSpaceOnUse"><stop stop-color="#262626"/><stop offset=".469" stop-color="#0D0D0D"/><stop offset="1" stop-color="#3A3A3A"/></linearGradient></defs></svg>